<svg width="263" height="47" viewBox="0 0 263 47" fill="none" xmlns="http://www.w3.org/2000/svg">
<path d="M60.3477 31.4824V36H49.6426V31.4824H60.3477ZM51.4883 10.4062V36H45.8984V10.4062H51.4883ZM71.0879 31.4121V22.8516C71.0879 22.2891 71.0352 21.8555 70.9297 21.5508C70.8242 21.2344 70.6602 21.0059 70.4375 20.8652C70.2148 20.7246 69.9219 20.6543 69.5586 20.6543C69.207 20.6543 68.9141 20.7363 68.6797 20.9004C68.4453 21.0527 68.2754 21.2871 68.1699 21.6035C68.0762 21.9082 68.0293 22.2949 68.0293 22.7637H62.668C62.668 21.9082 62.832 21.1113 63.1602 20.373C63.4883 19.623 63.9629 18.9668 64.584 18.4043C65.2051 17.8418 65.9492 17.4082 66.8164 17.1035C67.6953 16.7871 68.6797 16.6289 69.7695 16.6289C71.0469 16.6289 72.1895 16.8398 73.1973 17.2617C74.2051 17.6836 75.002 18.3574 75.5879 19.2832C76.1738 20.1973 76.4668 21.4043 76.4668 22.9043V31.2891C76.4668 32.4492 76.5254 33.3574 76.6426 34.0137C76.7715 34.6582 76.9473 35.2207 77.1699 35.7012V36H71.8086C71.5625 35.4375 71.3809 34.7461 71.2637 33.9258C71.1465 33.1055 71.0879 32.2676 71.0879 31.4121ZM71.7207 24.3809L71.7383 27.4395H70.0859C69.6641 27.4395 69.3008 27.5215 68.9961 27.6855C68.7031 27.8496 68.457 28.0723 68.2578 28.3535C68.0586 28.623 67.9121 28.9336 67.8184 29.2852C67.7246 29.6367 67.6777 30.0059 67.6777 30.3926C67.6777 30.873 67.7363 31.2539 67.8535 31.5352C67.9824 31.8047 68.1523 31.998 68.3633 32.1152C68.5742 32.2324 68.8203 32.291 69.1016 32.291C69.5938 32.291 70.0098 32.1914 70.3496 31.9922C70.7012 31.7812 70.959 31.5293 71.123 31.2363C71.2871 30.9434 71.334 30.6855 71.2637 30.4629L72.1602 32.5723C71.9844 33.0059 71.7852 33.4453 71.5625 33.8906C71.3516 34.3242 71.082 34.7285 70.7539 35.1035C70.4375 35.4785 70.0449 35.7773 69.5762 36C69.1074 36.2344 68.5332 36.3516 67.8535 36.3516C66.8457 36.3516 65.9199 36.1348 65.0762 35.7012C64.2441 35.2676 63.5762 34.6289 63.0723 33.7852C62.5801 32.9414 62.334 31.916 62.334 30.709C62.334 29.7832 62.4805 28.9336 62.7734 28.1602C63.0664 27.3867 63.5176 26.7188 64.127 26.1562C64.7363 25.5938 65.5273 25.1602 66.5 24.8555C67.4844 24.5391 68.6621 24.3809 70.0332 24.3809H71.7207ZM82.4082 10.4062H87.1016L91.7422 28.0195L96.3652 10.4062H100.777L93.6934 36H89.7734L82.4082 10.4062ZM80 10.4062H84.6934L85.502 28.5996V36H80V10.4062ZM98.7734 10.4062H103.467V36H97.9824V28.5996L98.7734 10.4062ZM112.713 16.9805V36H107.352V16.9805H112.713ZM107.105 12.0586C107.105 11.2617 107.369 10.6055 107.896 10.0898C108.436 9.5625 109.145 9.29883 110.023 9.29883C110.902 9.29883 111.605 9.5625 112.133 10.0898C112.66 10.6055 112.924 11.2617 112.924 12.0586C112.924 12.8672 112.66 13.5293 112.133 14.0449C111.605 14.5605 110.902 14.8184 110.023 14.8184C109.145 14.8184 108.436 14.5605 107.896 14.0449C107.369 13.5293 107.105 12.8672 107.105 12.0586ZM121.59 21.041V36H116.229V16.9805H121.256L121.59 21.041ZM120.887 25.8398L119.586 25.875C119.562 24.4336 119.691 23.1445 119.973 22.0078C120.266 20.8711 120.688 19.9043 121.238 19.1074C121.789 18.2988 122.451 17.6836 123.225 17.2617C123.998 16.8398 124.859 16.6289 125.809 16.6289C126.535 16.6289 127.203 16.7578 127.812 17.0156C128.434 17.2734 128.967 17.6895 129.412 18.2637C129.857 18.8262 130.203 19.5762 130.449 20.5137C130.695 21.4512 130.818 22.6055 130.818 23.9766V36H125.457V23.9414C125.457 23.1562 125.381 22.5527 125.229 22.1309C125.076 21.6973 124.848 21.3984 124.543 21.2344C124.25 21.0586 123.869 20.9707 123.4 20.9707C122.967 20.9707 122.586 21.0938 122.258 21.3398C121.941 21.5859 121.678 21.9316 121.467 22.377C121.256 22.8105 121.104 23.3262 121.01 23.9238C120.928 24.5098 120.887 25.1484 120.887 25.8398ZM143.264 31.4121V16.9805H148.625V36H143.615L143.264 31.4121ZM143.826 27.5098L145.215 27.4746C145.215 28.752 145.086 29.9355 144.828 31.0254C144.582 32.1035 144.213 33.041 143.721 33.8379C143.229 34.6348 142.619 35.2559 141.893 35.7012C141.166 36.1348 140.322 36.3516 139.361 36.3516C138.576 36.3516 137.855 36.2227 137.199 35.9648C136.555 35.6953 135.992 35.2793 135.512 34.7168C135.043 34.1426 134.68 33.4102 134.422 32.5195C134.164 31.6172 134.035 30.5391 134.035 29.2852V16.9805H139.379V29.3203C139.379 29.7891 139.414 30.1934 139.484 30.5332C139.566 30.8613 139.678 31.1367 139.818 31.3594C139.971 31.582 140.152 31.7461 140.363 31.8516C140.574 31.9453 140.814 31.9922 141.084 31.9922C141.787 31.9922 142.338 31.7988 142.736 31.4121C143.135 31.0137 143.416 30.4805 143.58 29.8125C143.744 29.1328 143.826 28.3652 143.826 27.5098ZM160.578 16.9805V20.9004H150.682V16.9805H160.578ZM152.721 12.2695H158.064V29.9883C158.064 30.5039 158.105 30.9023 158.188 31.1836C158.281 31.4648 158.439 31.6641 158.662 31.7812C158.885 31.8867 159.184 31.9395 159.559 31.9395C159.828 31.9395 160.057 31.9277 160.244 31.9043C160.443 31.8809 160.607 31.8516 160.736 31.8164L160.701 35.8594C160.291 36.0117 159.852 36.1289 159.383 36.2109C158.926 36.3047 158.41 36.3516 157.836 36.3516C156.77 36.3516 155.855 36.1582 155.094 35.7715C154.344 35.3848 153.758 34.7695 153.336 33.9258C152.926 33.082 152.721 31.9805 152.721 30.6211V12.2695ZM170.949 36.3516C169.625 36.3516 168.447 36.1582 167.416 35.7715C166.385 35.3848 165.518 34.8223 164.814 34.084C164.111 33.334 163.578 32.4258 163.215 31.3594C162.852 30.2812 162.67 29.0566 162.67 27.6855V25.8926C162.67 24.3574 162.834 23.0156 163.162 21.8672C163.502 20.707 163.994 19.7402 164.639 18.9668C165.283 18.1934 166.092 17.6133 167.064 17.2266C168.037 16.8281 169.156 16.6289 170.422 16.6289C171.605 16.6289 172.654 16.8164 173.568 17.1914C174.482 17.5664 175.25 18.1348 175.871 18.8965C176.492 19.6465 176.961 20.5957 177.277 21.7441C177.605 22.8809 177.77 24.2109 177.77 25.7344V28.248H164.797V24.6445H172.531V24.1172C172.531 23.3438 172.455 22.7285 172.303 22.2715C172.15 21.8145 171.916 21.4863 171.6 21.2871C171.283 21.0762 170.879 20.9707 170.387 20.9707C169.895 20.9707 169.49 21.0645 169.174 21.252C168.869 21.4277 168.635 21.709 168.471 22.0957C168.307 22.4824 168.189 22.9922 168.119 23.625C168.061 24.2578 168.031 25.0137 168.031 25.8926V27.6855C168.031 28.541 168.102 29.25 168.242 29.8125C168.383 30.3633 168.594 30.8027 168.875 31.1309C169.156 31.4473 169.496 31.6758 169.895 31.8164C170.305 31.9453 170.779 32.0098 171.318 32.0098C172.104 32.0098 172.836 31.875 173.516 31.6055C174.207 31.3242 174.793 30.9141 175.273 30.375L177.436 33.6621C177.096 34.084 176.621 34.5059 176.012 34.9277C175.414 35.3496 174.688 35.6953 173.832 35.9648C172.988 36.2227 172.027 36.3516 170.949 36.3516ZM192.693 27.4043H198.248C198.213 29.3262 197.832 30.9551 197.105 32.291C196.379 33.627 195.348 34.6406 194.012 35.332C192.676 36.0117 191.094 36.3516 189.266 36.3516C187.812 36.3516 186.523 36.1055 185.398 35.6133C184.273 35.1094 183.318 34.3828 182.533 33.4336C181.76 32.4844 181.174 31.3184 180.775 29.9355C180.389 28.5527 180.195 26.9707 180.195 25.1895V21.2168C180.195 19.4473 180.406 17.8652 180.828 16.4707C181.25 15.0762 181.848 13.9043 182.621 12.9551C183.406 11.9941 184.361 11.2676 185.486 10.7754C186.611 10.2832 187.871 10.0371 189.266 10.0371C191.176 10.0371 192.781 10.3945 194.082 11.1094C195.383 11.8242 196.385 12.8613 197.088 14.2207C197.791 15.5801 198.189 17.2266 198.283 19.1602H192.711C192.723 17.9883 192.617 17.0742 192.395 16.418C192.184 15.75 191.826 15.2812 191.322 15.0117C190.818 14.7305 190.133 14.5898 189.266 14.5898C188.645 14.5898 188.111 14.707 187.666 14.9414C187.221 15.1641 186.863 15.5332 186.594 16.0488C186.324 16.5645 186.125 17.2441 185.996 18.0879C185.867 18.9316 185.803 19.9629 185.803 21.1816V25.1895C185.803 26.4082 185.855 27.4395 185.961 28.2832C186.066 29.1152 186.248 29.7949 186.506 30.3223C186.764 30.8379 187.115 31.2129 187.561 31.4473C188.006 31.6816 188.574 31.7988 189.266 31.7988C190.039 31.7988 190.678 31.6816 191.182 31.4473C191.686 31.2012 192.061 30.7617 192.307 30.1289C192.564 29.4961 192.693 28.5879 192.693 27.4043ZM205.807 33.7852L209.727 16.9805H215.387L209.111 38.8301C208.971 39.3105 208.777 39.8262 208.531 40.377C208.297 40.9395 207.975 41.4727 207.564 41.9766C207.154 42.4805 206.633 42.8906 206 43.207C205.379 43.5234 204.623 43.6816 203.732 43.6816C203.252 43.6816 202.889 43.6523 202.643 43.5938C202.408 43.5469 202.062 43.4648 201.605 43.3477V39.3047C201.723 39.3047 201.816 39.3047 201.887 39.3047C201.969 39.3047 202.068 39.3047 202.186 39.3047C202.713 39.3047 203.129 39.2344 203.434 39.0938C203.75 38.9648 203.996 38.7598 204.172 38.4785C204.348 38.209 204.494 37.875 204.611 37.4766L205.807 33.7852ZM205.244 16.9805L208.021 30.4453L208.654 36.3691L205.068 36.5273L199.514 16.9805H205.244ZM217.355 9H222.682V31.4473L222.225 36H217.355V9ZM232.385 25.7168V27.2285C232.385 28.7754 232.262 30.1172 232.016 31.2539C231.781 32.3906 231.406 33.3398 230.891 34.1016C230.387 34.8633 229.742 35.4316 228.957 35.8066C228.184 36.1699 227.264 36.3516 226.197 36.3516C225.26 36.3516 224.463 36.123 223.807 35.666C223.15 35.1973 222.605 34.5527 222.172 33.7324C221.738 32.9004 221.387 31.9336 221.117 30.832C220.848 29.7305 220.643 28.5352 220.502 27.2461V25.7168C220.643 24.4512 220.842 23.2676 221.1 22.166C221.369 21.0645 221.721 20.0977 222.154 19.2656C222.588 18.4336 223.133 17.7891 223.789 17.332C224.445 16.8633 225.242 16.6289 226.18 16.6289C227.258 16.6289 228.184 16.8223 228.957 17.209C229.742 17.584 230.387 18.1523 230.891 18.9141C231.406 19.6758 231.781 20.625 232.016 21.7617C232.262 22.8984 232.385 24.2168 232.385 25.7168ZM227.041 27.2285V25.7168C227.041 24.8848 227.012 24.1758 226.953 23.5898C226.906 22.9922 226.801 22.5 226.637 22.1133C226.484 21.7266 226.25 21.4395 225.934 21.252C225.629 21.0645 225.23 20.9707 224.738 20.9707C224.258 20.9707 223.854 21.0703 223.525 21.2695C223.209 21.457 222.951 21.7324 222.752 22.0957C222.553 22.4473 222.406 22.8809 222.312 23.3965C222.23 23.9004 222.189 24.4688 222.189 25.1016V27.8438C222.178 28.7109 222.242 29.4551 222.383 30.0762C222.535 30.6973 222.799 31.1777 223.174 31.5176C223.549 31.8457 224.076 32.0098 224.756 32.0098C225.271 32.0098 225.676 31.9336 225.969 31.7812C226.273 31.6172 226.502 31.3477 226.654 30.9727C226.818 30.5977 226.924 30.1055 226.971 29.4961C227.018 28.875 227.041 28.1191 227.041 27.2285ZM243.02 36.3516C241.695 36.3516 240.518 36.1582 239.486 35.7715C238.455 35.3848 237.588 34.8223 236.885 34.084C236.182 33.334 235.648 32.4258 235.285 31.3594C234.922 30.2812 234.74 29.0566 234.74 27.6855V25.8926C234.74 24.3574 234.904 23.0156 235.232 21.8672C235.572 20.707 236.064 19.7402 236.709 18.9668C237.354 18.1934 238.162 17.6133 239.135 17.2266C240.107 16.8281 241.227 16.6289 242.492 16.6289C243.676 16.6289 244.725 16.8164 245.639 17.1914C246.553 17.5664 247.32 18.1348 247.941 18.8965C248.562 19.6465 249.031 20.5957 249.348 21.7441C249.676 22.8809 249.84 24.2109 249.84 25.7344V28.248H236.867V24.6445H244.602V24.1172C244.602 23.3438 244.525 22.7285 244.373 22.2715C244.221 21.8145 243.986 21.4863 243.67 21.2871C243.354 21.0762 242.949 20.9707 242.457 20.9707C241.965 20.9707 241.561 21.0645 241.244 21.252C240.939 21.4277 240.705 21.709 240.541 22.0957C240.377 22.4824 240.26 22.9922 240.189 23.625C240.131 24.2578 240.102 25.0137 240.102 25.8926V27.6855C240.102 28.541 240.172 29.25 240.312 29.8125C240.453 30.3633 240.664 30.8027 240.945 31.1309C241.227 31.4473 241.566 31.6758 241.965 31.8164C242.375 31.9453 242.85 32.0098 243.389 32.0098C244.174 32.0098 244.906 31.875 245.586 31.6055C246.277 31.3242 246.863 30.9141 247.344 30.375L249.506 33.6621C249.166 34.084 248.691 34.5059 248.082 34.9277C247.484 35.3496 246.758 35.6953 245.902 35.9648C245.059 36.2227 244.098 36.3516 243.02 36.3516ZM257.838 21.4629V36H252.494V16.9805H257.504L257.838 21.4629ZM262.285 16.8398L262.232 22.043C262.01 22.0078 261.729 21.9785 261.389 21.9551C261.049 21.9199 260.762 21.9023 260.527 21.9023C259.988 21.9023 259.531 21.9844 259.156 22.1484C258.781 22.3125 258.471 22.5586 258.225 22.8867C257.979 23.2031 257.797 23.6016 257.68 24.082C257.562 24.5625 257.504 25.1133 257.504 25.7344L256.555 25.207C256.555 23.9414 256.648 22.7871 256.836 21.7441C257.035 20.7012 257.322 19.7988 257.697 19.0371C258.084 18.2754 258.547 17.6836 259.086 17.2617C259.625 16.8398 260.229 16.6289 260.896 16.6289C261.131 16.6289 261.377 16.6465 261.635 16.6816C261.904 16.7168 262.121 16.7695 262.285 16.8398Z" fill="black"/>
<line x1="18.6464" y1="45.2464" x2="19.3536" y2="44.5393" stroke="black"/>
<path d="M3.28218 12.9838L3.28218 26.386" stroke="black" stroke-width="3.2"/>
<path d="M19.5696 5.59863C2.53444 11.8975 3.28312 8.70071 3.28312 13.4205" stroke="black" stroke-width="3.2"/>
<path d="M3.27962 25.8364C3.30683 36.5786 9.20571 38.3512 19.6422 44.1123" stroke="black" stroke-width="3.2"/>
<path d="M34.697 12.9806V26.3827" stroke="black" stroke-width="3.2"/>
<path d="M18.4196 5.5954C35.4548 11.8942 34.7061 8.69747 34.7061 13.4172" stroke="black" stroke-width="3.2"/>
<path d="M34.6996 25.8331C34.6724 36.5753 28.7735 38.3479 18.337 44.109" stroke="black" stroke-width="3.2"/>
<circle cx="19" cy="24.5" r="3" fill="black"/>
<path d="M20 14.5C20 13.9477 19.5523 13.5 19 13.5C18.4477 13.5 18 13.9477 18 14.5H20ZM19 14.5H18V24.5H19H20V14.5H19Z" fill="black"/>
<path d="M23.2318 31.1402C23.5853 31.5645 24.2159 31.6218 24.6402 31.2682C25.0645 30.9147 25.1218 30.2841 24.7682 29.8598L23.2318 31.1402ZM24 30.5L24.7682 29.8598L19.7682 23.8598L19 24.5L18.2318 25.1402L23.2318 31.1402L24 30.5Z" fill="black"/>
</svg>
